<?xml version="1.0" encoding="utf-8"?>
<!-- Generator: Adobe Illustrator 17.0.0, SVG Export Plug-In . SVG Version: 6.00 Build 0)  -->
<!DOCTYPE svg PUBLIC "-//W3C//DTD SVG 1.1//EN" "http://www.w3.org/Graphics/SVG/1.1/DTD/svg11.dtd">
<svg version="1.1" id="Layer_1" xmlns="http://www.w3.org/2000/svg" xmlns:xlink="http://www.w3.org/1999/xlink" x="0px" y="0px"
	 width="418px" height="159px" viewBox="0 0 418 159" enable-background="new 0 0 418 159" xml:space="preserve">
<path fill="#97D5F6" d="M9.188,63.118c-0.533-0.119-1.062,0.216-1.182,0.749l-0.328,1.464c-0.12,0.533,0.216,1.062,0.749,1.182
	c0.073,0.016,0.146,0.024,0.217,0.024c0.453,0,0.861-0.313,0.964-0.773L9.937,64.3C10.056,63.767,9.721,63.238,9.188,63.118z
	 M14.309,54.854c0.073,0.016,0.146,0.024,0.217,0.024c0.453,0,0.861-0.313,0.964-0.773l6.28-27.998
	c0.12-0.533-0.216-1.062-0.749-1.182c-0.533-0.12-1.062,0.216-1.182,0.749l-6.28,27.998C13.441,54.206,13.776,54.735,14.309,54.854z
	 M27.128,26.838c0.073,0.016,0.146,0.024,0.217,0.024c0.453,0,0.861-0.313,0.964-0.773l2.786-12.42
	c0.12-0.533-0.216-1.062-0.749-1.182c-0.533-0.12-1.062,0.216-1.182,0.749l-2.786,12.42C26.26,26.189,26.595,26.718,27.128,26.838z
	 M31.042,23.958c0.073,0.016,0.146,0.024,0.217,0.024c0.453,0,0.861-0.313,0.964-0.773l1.495-6.667
	c0.12-0.533-0.216-1.062-0.749-1.182c-0.533-0.12-1.062,0.216-1.182,0.749l-1.495,6.667C30.173,23.309,30.508,23.838,31.042,23.958z
	 M22.756,31.763c0.073,0.016,0.146,0.024,0.217,0.024c0.453,0,0.861-0.313,0.964-0.773l2.046-9.122l0-0.001l2.534-11.3
	c0.12-0.533-0.216-1.062-0.749-1.182c-0.533-0.12-1.062,0.216-1.182,0.749l-4.581,20.423C21.888,31.114,22.223,31.643,22.756,31.763
	z M7.344,42.204c-0.533-0.12-1.062,0.216-1.182,0.749l-1.247,5.559c-0.12,0.533,0.216,1.062,0.749,1.182
	c0.073,0.016,0.146,0.024,0.217,0.024c0.453,0,0.861-0.313,0.964-0.773l1.247-5.559C8.213,42.852,7.877,42.323,7.344,42.204z
	 M14.609,34.493c0,0.004-0.002,0.009-0.002,0.013c-0.006,0.132-0.037,0.274-0.091,0.419l-0.023,0.064
	c-0.001,0.004-0.002,0.008-0.003,0.011c-0.013,0.038-0.025,0.076-0.034,0.116l-3.251,14.495c-0.12,0.533,0.216,1.062,0.749,1.182
	c0.073,0.016,0.146,0.024,0.217,0.024c0.453,0,0.861-0.313,0.964-0.773l3.238-14.434c0.113-0.306,0.182-0.614,0.206-0.918
	l1.912-8.522c0.12-0.533-0.216-1.062-0.749-1.182c-0.533-0.12-1.062,0.216-1.182,0.749l-1.929,8.598
	C14.618,34.388,14.612,34.44,14.609,34.493z M10.06,30.095c0.073,0.016,0.146,0.024,0.217,0.024c0.453,0,0.861-0.313,0.964-0.773
	l1.208-5.387c0.12-0.533-0.216-1.062-0.749-1.182c-0.533-0.12-1.062,0.216-1.182,0.749l-1.208,5.387
	C9.192,29.447,9.527,29.976,10.06,30.095z M66.133,23.231l-1.221,5.443c-0.12,0.533,0.216,1.062,0.749,1.182
	c0.073,0.016,0.146,0.024,0.217,0.024c0.453,0,0.861-0.313,0.964-0.773l1.221-5.443c0.12-0.533-0.216-1.062-0.749-1.182
	C66.782,22.362,66.253,22.698,66.133,23.231z M12.811,32.397c0.073,0.016,0.146,0.024,0.217,0.024c0.453,0,0.861-0.313,0.964-0.773
	l1.477-6.585c0.12-0.533-0.216-1.062-0.749-1.182c-0.533-0.119-1.062,0.216-1.182,0.749l-1.477,6.585
	C11.943,31.749,12.278,32.278,12.811,32.397z M54.393,21.825c0.073,0.016,0.146,0.024,0.217,0.024c0.453,0,0.861-0.313,0.964-0.773
	l1.038-4.626c0.12-0.533-0.216-1.062-0.749-1.182c-0.533-0.12-1.062,0.216-1.182,0.749l-1.038,4.626
	C53.524,21.176,53.86,21.705,54.393,21.825z M57.362,23.154c0.073,0.016,0.146,0.024,0.217,0.024c0.453,0,0.861-0.313,0.964-0.773
	l1.723-7.681c0.12-0.533-0.216-1.062-0.749-1.182c-0.533-0.119-1.062,0.216-1.182,0.749l-1.723,7.681
	C56.494,22.505,56.829,23.034,57.362,23.154z M60.24,24.892c0.073,0.016,0.146,0.024,0.217,0.024c0.453,0,0.861-0.313,0.964-0.773
	L64.73,9.394c0.12-0.533-0.216-1.062-0.749-1.182c-0.533-0.119-1.062,0.216-1.182,0.749L59.491,23.71
	C59.371,24.243,59.707,24.772,60.24,24.892z M51.337,20.881c0.073,0.016,0.146,0.024,0.217,0.024c0.453,0,0.861-0.313,0.964-0.773
	l1.03-4.593c0.12-0.533-0.216-1.062-0.749-1.182c-0.533-0.12-1.062,0.216-1.182,0.749l-1.03,4.593
	C50.468,20.232,50.804,20.761,51.337,20.881z M34.725,22.104c0.073,0.016,0.146,0.024,0.217,0.024c0.453,0,0.861-0.313,0.964-0.773
	l1.209-5.391c0.12-0.533-0.216-1.062-0.749-1.182c-0.533-0.12-1.062,0.216-1.182,0.749l-1.209,5.391
	C33.857,21.455,34.192,21.984,34.725,22.104z M63.014,27.093c0.073,0.016,0.146,0.024,0.217,0.024c0.453,0,0.861-0.313,0.964-0.773
	l3.456-15.409c0.12-0.533-0.216-1.062-0.749-1.182c-0.533-0.12-1.062,0.216-1.182,0.749l-3.456,15.409
	C62.145,26.445,62.48,26.974,63.014,27.093z M48.56,14.172l-1.111,4.955c-0.12,0.533,0.216,1.062,0.749,1.182
	c0.073,0.016,0.146,0.024,0.217,0.024c0.453,0,0.861-0.313,0.964-0.773l1.111-4.955c0.12-0.533-0.216-1.062-0.749-1.182
	C49.209,13.303,48.68,13.638,48.56,14.172z M41.664,20.305c0.073,0.016,0.146,0.024,0.217,0.024c0.453,0,0.861-0.313,0.964-0.773
	L46.13,4.913c0.12-0.533-0.216-1.062-0.749-1.182c-0.533-0.12-1.062,0.216-1.182,0.749l-3.284,14.643
	C40.795,19.656,41.13,20.186,41.664,20.305z M44.155,19.145c0,0.546,0.443,0.989,0.989,0.989l0.018,0c0.006,0,0.019,0,0.026,0
	c0.001,0,0.003,0,0.004,0c0.057,0,0.114-0.005,0.169-0.015c0.002,0,0.004-0.001,0.006-0.002c0.053-0.01,0.104-0.023,0.154-0.04
	c0.024-0.008,0.046-0.021,0.068-0.031c0.027-0.012,0.055-0.022,0.081-0.037c0.024-0.013,0.045-0.03,0.067-0.045
	c0.023-0.015,0.048-0.029,0.069-0.047c0.018-0.014,0.033-0.031,0.05-0.047c0.024-0.022,0.048-0.042,0.07-0.066
	c0.012-0.014,0.022-0.03,0.034-0.045c0.023-0.028,0.046-0.056,0.066-0.087c0.011-0.018,0.019-0.037,0.029-0.056
	c0.017-0.031,0.035-0.06,0.048-0.093c0.022-0.052,0.039-0.107,0.052-0.164l2.696-12.02c0.12-0.533-0.216-1.062-0.749-1.182
	c-0.533-0.12-1.062,0.216-1.182,0.749l-2.633,11.738C44.204,18.793,44.155,18.963,44.155,19.145z M74.284,35.115
	c0.073,0.016,0.146,0.024,0.217,0.024c0.453,0,0.861-0.313,0.965-0.773l2.156-9.613c0.12-0.533-0.216-1.062-0.749-1.182
	c-0.533-0.12-1.062,0.216-1.182,0.749l-2.156,9.613C73.416,34.466,73.751,34.995,74.284,35.115z M23.242,15.031
	c0.073,0.016,0.146,0.024,0.217,0.024c0.453,0,0.861-0.313,0.964-0.773l0.835-3.724c0.12-0.533-0.216-1.062-0.749-1.182
	c-0.533-0.12-1.062,0.216-1.182,0.749l-0.835,3.724C22.373,14.382,22.708,14.911,23.242,15.031z M49.748,71.668
	c-0.533-0.119-1.062,0.216-1.182,0.749l-3.314,14.777c-0.12,0.533,0.216,1.062,0.749,1.182c0.073,0.016,0.146,0.024,0.217,0.024
	c0.453,0,0.861-0.313,0.964-0.773l3.314-14.777C50.616,72.317,50.281,71.788,49.748,71.668z M39.991,71.465
	c-0.533-0.119-1.062,0.216-1.182,0.749l-1.028,4.583c-0.12,0.533,0.216,1.062,0.749,1.182c0.073,0.016,0.146,0.024,0.217,0.024
	c0.453,0,0.861-0.313,0.964-0.773l1.028-4.583C40.859,72.114,40.524,71.584,39.991,71.465z M53.194,70.873
	c-0.533-0.119-1.062,0.216-1.182,0.749l-1.149,5.123c-0.12,0.533,0.216,1.062,0.749,1.182c0.073,0.016,0.146,0.024,0.217,0.024
	c0.453,0,0.861-0.313,0.964-0.773l1.149-5.123C54.062,71.522,53.727,70.992,53.194,70.873z M46.407,71.997
	c-0.533-0.119-1.062,0.216-1.182,0.749l-3.241,14.447c-0.12,0.533,0.216,1.062,0.749,1.182c0.073,0.016,0.146,0.024,0.217,0.024
	c0.453,0,0.861-0.313,0.964-0.773l3.241-14.447C47.275,72.646,46.94,72.117,46.407,71.997z M42.43,79.681l1.476-6.578
	c0.12-0.533-0.216-1.062-0.749-1.182c-0.533-0.119-1.062,0.216-1.182,0.749l-1.476,6.578c-0.12,0.533,0.216,1.062,0.749,1.182
	c0.073,0.016,0.146,0.024,0.217,0.024C41.918,80.454,42.326,80.141,42.43,79.681z M56.768,69.504
	c-0.533-0.119-1.062,0.216-1.182,0.749l-1.241,5.533c-0.12,0.533,0.216,1.062,0.749,1.182c0.073,0.016,0.146,0.024,0.217,0.024
	c0.453,0,0.861-0.313,0.964-0.773l1.241-5.533C57.637,70.153,57.302,69.624,56.768,69.504z M69.988,25.136
	c-0.533-0.12-1.062,0.216-1.182,0.749l-1.414,6.303c-0.12,0.533,0.216,1.062,0.749,1.182c0.073,0.016,0.146,0.024,0.217,0.024
	c0.453,0,0.861-0.313,0.964-0.773l1.414-6.303C70.856,25.785,70.521,25.255,69.988,25.136z M70.96,36.361
	c0.453,0,0.861-0.313,0.964-0.773l2.138-9.532c0.12-0.533-0.216-1.062-0.749-1.182c-0.533-0.12-1.062,0.216-1.182,0.749
	l-2.138,9.532c-0.12,0.533,0.216,1.062,0.749,1.182C70.816,36.353,70.889,36.361,70.96,36.361z M63.839,67.117
	c-0.533-0.119-1.062,0.216-1.182,0.749l-2.598,11.585c-0.12,0.533,0.216,1.062,0.749,1.182c0.073,0.016,0.146,0.024,0.217,0.024
	c0.453,0,0.861-0.313,0.964-0.773l2.598-11.585C64.707,67.766,64.372,67.237,63.839,67.117z M60.516,67.363
	c-0.533-0.119-1.062,0.216-1.182,0.749l-1.851,8.254c-0.12,0.533,0.216,1.062,0.749,1.182c0.073,0.016,0.146,0.024,0.217,0.024
	c0.453,0,0.861-0.313,0.964-0.773l1.851-8.254C61.384,68.012,61.049,67.483,60.516,67.363z M65.707,73.354
	c-0.533-0.119-1.062,0.216-1.182,0.749l-1.889,8.423c-0.12,0.533,0.216,1.062,0.749,1.182c0.073,0.016,0.146,0.024,0.217,0.024
	c0.453,0,0.861-0.313,0.964-0.773l1.889-8.423C66.576,74.003,66.24,73.474,65.707,73.354z M22.967,59.958
	c-0.533-0.119-1.062,0.216-1.182,0.749l-1.328,5.922c-0.12,0.533,0.216,1.062,0.749,1.182c0.073,0.016,0.146,0.024,0.217,0.024
	c0.453,0,0.861-0.313,0.964-0.773l1.328-5.922C23.835,60.607,23.5,60.078,22.967,59.958z M20.654,55.703
	c-0.533-0.119-1.062,0.216-1.182,0.749l-2.06,9.182c-0.12,0.533,0.216,1.062,0.749,1.182c0.073,0.016,0.146,0.024,0.217,0.024
	c0.453,0,0.861-0.313,0.964-0.773l2.06-9.182C21.522,56.352,21.187,55.823,20.654,55.703z M10.746,41.605
	c-0.533-0.12-1.062,0.216-1.182,0.749l-1.505,6.711c-0.12,0.533,0.216,1.062,0.749,1.182c0.073,0.016,0.146,0.024,0.217,0.024
	c0.453,0,0.861-0.313,0.964-0.773l1.505-6.711C11.614,42.254,11.279,41.725,10.746,41.605z M24.09,70.512
	c0.453,0,0.861-0.313,0.964-0.773l1.2-5.352c0.12-0.533-0.216-1.062-0.749-1.182c-0.533-0.119-1.062,0.216-1.182,0.749l-1.2,5.352
	c-0.12,0.533,0.216,1.062,0.749,1.182C23.946,70.504,24.018,70.512,24.09,70.512z M38.471,20.964c0.453,0,0.861-0.313,0.964-0.773
	l1.129-5.034c0.12-0.533-0.216-1.062-0.749-1.182c-0.533-0.12-1.062,0.216-1.182,0.749l-1.129,5.034
	c-0.12,0.533,0.216,1.062,0.749,1.182C38.327,20.956,38.399,20.964,38.471,20.964z M18.806,49.374
	c-0.533-0.119-1.062,0.216-1.182,0.749l-3.773,16.82c-0.12,0.533,0.216,1.062,0.749,1.182c0.073,0.016,0.146,0.024,0.217,0.024
	c0.453,0,0.861-0.313,0.964-0.773l3.773-16.82C19.674,50.022,19.339,49.493,18.806,49.374z M13.211,59.748
	c-0.533-0.119-1.062,0.216-1.182,0.749l-1.655,7.379c-0.211,0.261-0.285,0.623-0.162,0.961c0.146,0.402,0.526,0.652,0.93,0.652
	c0.112,0,0.226-0.019,0.337-0.06l0.106-0.039l0.011-0.004c0.045-0.016,0.088-0.037,0.129-0.059c0.011-0.006,0.022-0.013,0.032-0.019
	c0.032-0.019,0.064-0.04,0.093-0.062c0.012-0.009,0.024-0.019,0.036-0.028c0.03-0.025,0.059-0.052,0.085-0.08
	c0.008-0.008,0.016-0.015,0.023-0.023c0.032-0.036,0.061-0.075,0.088-0.115c0.008-0.013,0.015-0.026,0.023-0.039
	c0.019-0.031,0.036-0.064,0.051-0.097c0.007-0.014,0.013-0.029,0.019-0.044c0.019-0.047,0.035-0.096,0.047-0.147l1.737-7.745
	C14.08,60.397,13.745,59.868,13.211,59.748z M33.912,69.43c-0.533-0.119-1.062,0.216-1.182,0.749l-1.254,5.593
	c-0.12,0.533,0.216,1.062,0.749,1.182c0.073,0.016,0.146,0.024,0.217,0.024c0.453,0,0.861-0.313,0.964-0.773l1.254-5.593
	C34.781,70.079,34.446,69.55,33.912,69.43z M28.197,65.776c-0.533-0.119-1.062,0.216-1.182,0.749l-3.409,15.198
	c-0.12,0.533,0.216,1.062,0.749,1.182c0.073,0.016,0.146,0.024,0.217,0.024c0.453,0,0.861-0.313,0.964-0.773l3.409-15.198
	C29.066,66.424,28.73,65.895,28.197,65.776z M36.909,70.636c-0.533-0.119-1.062,0.216-1.182,0.749l-1.035,4.614
	c-0.12,0.533,0.216,1.062,0.749,1.182c0.073,0.016,0.146,0.024,0.217,0.024c0.453,0,0.861-0.313,0.964-0.773l1.035-4.614
	C37.778,71.285,37.443,70.756,36.909,70.636z M31.005,67.824c-0.533-0.119-1.062,0.216-1.182,0.749l-2.786,12.42
	c-0.12,0.533,0.216,1.062,0.749,1.182c0.073,0.016,0.146,0.024,0.217,0.024c0.453,0,0.861-0.313,0.964-0.773l2.786-12.42
	C31.874,68.473,31.538,67.944,31.005,67.824z"/>
<g>
	<path fill="#FFFFFF" d="M281.458,78.307c-5.688-6.103-8.532-13.915-8.532-23.433c0-9.516,2.824-17.251,8.475-23.206
		c5.648-5.952,12.683-8.93,21.101-8.93c4.929,0,9.271,1.12,13.024,3.356c3.754,2.237,6.654,5.175,8.702,8.816V23.763h13.081v92.481
		h-13.081v-41.52c-2.124,3.868-5.044,6.959-8.759,9.271c-3.717,2.314-8.039,3.47-12.968,3.47
		C294.159,87.464,287.146,84.412,281.458,78.307z M318.598,70.458c3.754-3.829,5.631-8.966,5.631-15.413
		c0-6.445-1.877-11.564-5.631-15.357c-3.754-3.791-8.21-5.687-13.365-5.687c-5.158,0-9.612,1.859-13.366,5.574
		c-3.754,3.716-5.631,8.798-5.631,15.243c0,6.447,1.877,11.622,5.631,15.527c3.754,3.907,8.208,5.858,13.366,5.858
		C310.388,76.203,314.844,74.289,318.598,70.458z"/>
</g>
<path fill="#FFFFFF" d="M143.244,88.237l5.968-10.639l-7.265-4.152c-4.022-2.335-5.579-5.449-5.579-12.196V36.469h10.769V23.754
	h-10.769V3.384l-13.493,3.763v16.607h-7.655v12.715h7.655v27.246C122.874,76.819,129.361,81.62,143.244,88.237z"/>
<path fill="#FFFFFF" d="M159.332,23.754V86.55h13.494V45.032c0-5.709,4.411-9.471,9.342-9.471c1.297,0,3.763,0.778,5.06,1.816
	l4.801-13.364c-1.817-1.168-4.411-1.946-7.396-1.946c-5.449,0-10.12,3.373-12.326,8.563h-0.259v-6.876H159.332z"/>
<path fill="#FFFFFF" d="M248.984,23.754v7.655h-0.259c-3.503-5.32-10.639-9.342-19.981-9.342c-20.37,0-33.215,17.645-33.215,33.085
	c0,16.218,11.936,33.085,32.566,33.085c8.563,0,16.348-3.633,20.63-9.342h0.259v7.655h13.493V23.754H248.984z M229.782,75.522
	c-10.898,0-19.981-9.082-19.981-20.37c0-11.288,9.082-20.37,19.981-20.37c10.639,0,19.721,9.082,19.721,20.37
	C249.503,66.44,240.421,75.522,229.782,75.522z"/>
<path fill="#FFFFFF" d="M401.711,23.754v7.655h-0.26c-3.503-5.32-10.639-9.342-19.98-9.342c-20.37,0-33.214,17.645-33.214,33.085
	c0,16.218,11.936,33.085,32.566,33.085c8.563,0,16.348-3.633,20.629-9.342h0.26v7.655h13.493V23.754H401.711z M382.509,75.522
	c-10.898,0-19.98-9.082-19.98-20.37c0-11.288,9.082-20.37,19.98-20.37c10.639,0,19.721,9.082,19.721,20.37
	C402.23,66.44,393.148,75.522,382.509,75.522z"/>
<g>
	<path fill="#FFFFFF" d="M19.483,140.391c0,5.413-3.534,8.695-9.272,8.695H4.772V131.62h5.438
		C15.948,131.62,19.483,134.979,19.483,140.391z M10.21,147.207c4.561,0,6.942-2.556,6.942-6.817c0-4.259-2.381-6.915-6.942-6.915
		H7.053v13.732H10.21z"/>
	<path fill="#FFFFFF" d="M22.62,131.57c0-0.877,0.677-1.554,1.554-1.554c0.827,0,1.504,0.677,1.504,1.554s-0.677,1.554-1.504,1.554
		C23.296,133.124,22.62,132.447,22.62,131.57z M22.995,135.354h2.281v13.732h-2.281V135.354z"/>
	<path fill="#FFFFFF" d="M35.324,135.129c2.507,0,4.311,1.252,5.113,2.731v-2.506h2.306v14.033c0,3.783-2.531,6.465-6.565,6.465
		c-3.609,0-6.19-1.83-6.642-4.761h2.256c0.502,1.654,2.13,2.781,4.386,2.781c2.431,0,4.259-1.554,4.259-4.485v-2.882
		c-0.827,1.479-2.606,2.807-5.113,2.807c-3.683,0-6.515-2.882-6.515-7.142C28.809,137.885,31.642,135.129,35.324,135.129z
		 M35.776,137.108c-2.506,0-4.636,1.83-4.636,5.063c0,3.232,2.13,5.136,4.636,5.136c2.506,0,4.661-1.879,4.661-5.111
		C40.437,139.014,38.282,137.108,35.776,137.108z"/>
	<path fill="#FFFFFF" d="M46.707,131.57c0-0.877,0.677-1.554,1.554-1.554c0.827,0,1.504,0.677,1.504,1.554s-0.677,1.554-1.504,1.554
		C47.384,133.124,46.707,132.447,46.707,131.57z M47.082,135.354h2.281v13.732h-2.281V135.354z"/>
	<path fill="#FFFFFF" d="M54.25,137.233h-1.779v-1.879h1.779v-3.458h2.281v3.458h3.583v1.879h-3.583v8.095
		c0,1.352,0.502,1.829,1.904,1.829h1.679v1.929H58.06c-2.431,0-3.809-1.002-3.809-3.758V137.233z"/>
	<path fill="#FFFFFF" d="M69.012,135.129c2.557,0,4.311,1.302,5.113,2.731v-2.506h2.306v13.732h-2.306v-2.556
		c-0.827,1.479-2.606,2.782-5.138,2.782c-3.658,0-6.49-2.882-6.49-7.142C62.497,137.885,65.33,135.129,69.012,135.129z
		 M69.464,137.108c-2.506,0-4.636,1.83-4.636,5.063c0,3.232,2.13,5.136,4.636,5.136s4.661-1.879,4.661-5.111
		C74.125,139.014,71.97,137.108,69.464,137.108z"/>
	<path fill="#FFFFFF" d="M80.77,130.543h2.281v18.543H80.77V130.543z"/>
	<path fill="#FFFFFF" d="M100.293,135.129c2.557,0,4.311,1.302,5.113,2.731v-2.506h2.306v13.732h-2.306v-2.556
		c-0.827,1.479-2.606,2.782-5.138,2.782c-3.658,0-6.49-2.882-6.49-7.142C93.778,137.885,96.61,135.129,100.293,135.129z
		 M100.745,137.108c-2.506,0-4.636,1.83-4.636,5.063c0,3.232,2.13,5.136,4.636,5.136c2.506,0,4.661-1.879,4.661-5.111
		C105.406,139.014,103.25,137.108,100.745,137.108z"/>
	<path fill="#FFFFFF" d="M124.23,149.086h-2.281v-2.029c-0.877,1.427-2.556,2.229-4.386,2.229c-3.157,0-5.638-1.954-5.638-5.888
		v-8.044h2.256v7.744c0,2.781,1.529,4.209,3.834,4.209c2.356,0,3.934-1.454,3.934-4.409v-7.543h2.281V149.086z"/>
	<path fill="#FFFFFF" d="M129.096,137.233h-1.779v-1.879h1.779v-3.458h2.281v3.458h3.583v1.879h-3.583v8.095
		c0,1.352,0.5,1.829,1.904,1.829h1.679v1.929h-2.054c-2.431,0-3.809-1.002-3.809-3.758V137.233z"/>
	<path fill="#FFFFFF" d="M144.183,149.313c-3.884,0-6.842-2.757-6.842-7.117c0-4.336,3.057-7.067,6.942-7.067
		c3.909,0,6.942,2.731,6.942,7.067C151.225,146.555,148.092,149.313,144.183,149.313z M144.183,147.307
		c2.381,0,4.711-1.629,4.711-5.111c0-3.459-2.281-5.088-4.636-5.088c-2.406,0-4.586,1.629-4.586,5.088
		C139.672,145.679,141.802,147.307,144.183,147.307z"/>
	<path fill="#FFFFFF" d="M174.558,141.319c0-2.807-1.504-4.236-3.759-4.236c-2.304,0-3.883,1.479-3.883,4.436v7.567h-2.256v-7.767
		c0-2.807-1.504-4.236-3.759-4.236c-2.306,0-3.884,1.479-3.884,4.436v7.567h-2.281v-13.732h2.281v1.98
		c0.902-1.454,2.531-2.231,4.336-2.231c2.254,0,4.134,1.002,5.036,3.057c0.802-1.98,2.756-3.057,4.861-3.057
		c3.132,0,5.563,1.954,5.563,5.888v8.094h-2.256V141.319z"/>
	<path fill="#FFFFFF" d="M186.719,135.129c2.557,0,4.311,1.302,5.113,2.731v-2.506h2.306v13.732h-2.306v-2.556
		c-0.827,1.479-2.606,2.782-5.138,2.782c-3.658,0-6.49-2.882-6.49-7.142C180.204,137.885,183.037,135.129,186.719,135.129z
		 M187.171,137.108c-2.506,0-4.636,1.83-4.636,5.063c0,3.232,2.13,5.136,4.636,5.136c2.506,0,4.661-1.879,4.661-5.111
		C191.832,139.014,189.677,137.108,187.171,137.108z"/>
	<path fill="#FFFFFF" d="M198.979,137.233H197.2v-1.879h1.779v-3.458h2.281v3.458h3.583v1.879h-3.583v8.095
		c0,1.352,0.5,1.829,1.904,1.829h1.679v1.929h-2.054c-2.431,0-3.809-1.002-3.809-3.758V137.233z"/>
	<path fill="#FFFFFF" d="M207.726,131.57c0-0.877,0.677-1.554,1.554-1.554c0.827,0,1.504,0.677,1.504,1.554
		s-0.677,1.554-1.504,1.554C208.403,133.124,207.726,132.447,207.726,131.57z M208.101,135.354h2.281v13.732h-2.281V135.354z"/>
	<path fill="#FFFFFF" d="M220.759,149.313c-3.884,0-6.842-2.757-6.842-7.117c0-4.336,3.057-7.067,6.942-7.067
		c3.909,0,6.942,2.731,6.942,7.067C227.801,146.555,224.668,149.313,220.759,149.313z M220.759,147.307
		c2.381,0,4.711-1.629,4.711-5.111c0-3.459-2.281-5.088-4.636-5.088c-2.406,0-4.586,1.629-4.586,5.088
		C216.248,145.679,218.378,147.307,220.759,147.307z"/>
	<path fill="#FFFFFF" d="M241.36,141.319c0-2.807-1.529-4.236-3.834-4.236c-2.331,0-3.934,1.454-3.934,4.411v7.592h-2.281v-13.732
		h2.281v1.955c0.902-1.429,2.556-2.206,4.411-2.206c3.182,0,5.613,1.954,5.613,5.888v8.094h-2.256V141.319z"/>
	<path fill="#FFFFFF" d="M255.45,137.233h-1.779v-1.879h1.779v-0.977c0-3.057,1.504-4.436,5.011-4.436v1.905
		c-2.054,0-2.731,0.752-2.731,2.531v0.977h2.881v1.879h-2.881v11.853h-2.281V137.233z"/>
	<path fill="#FFFFFF" d="M269.76,149.313c-3.884,0-6.842-2.757-6.842-7.117c0-4.336,3.057-7.067,6.942-7.067
		c3.909,0,6.942,2.731,6.942,7.067C276.802,146.555,273.669,149.313,269.76,149.313z M269.76,147.307
		c2.381,0,4.711-1.629,4.711-5.111c0-3.459-2.281-5.088-4.636-5.088c-2.406,0-4.586,1.629-4.586,5.088
		C265.249,145.679,267.38,147.307,269.76,147.307z"/>
	<path fill="#FFFFFF" d="M282.595,149.086h-2.281v-13.732h2.281v2.231c0.777-1.529,2.256-2.481,4.436-2.481v2.356h-0.602
		c-2.181,0-3.834,0.977-3.834,4.159V149.086z"/>
	<path fill="#FFFFFF" d="M303.298,149.313c-3.909,0-6.792-2.757-6.792-7.117c0-4.336,2.782-7.067,6.792-7.067
		c3.984,0,6.59,2.806,6.59,6.565c0,0.502-0.025,0.902-0.075,1.379h-10.976c0.175,2.781,2.13,4.309,4.461,4.309
		c2.054,0,3.358-1.052,3.859-2.531h2.456C308.911,147.357,306.705,149.313,303.298,149.313z M298.862,141.218h8.671
		c0.025-2.681-1.979-4.159-4.334-4.159C300.967,137.058,299.113,138.537,298.862,141.218z"/>
	<path fill="#FFFFFF" d="M317.284,143.975l-3.132,5.111h-2.381l4.436-6.815l-4.436-6.917h2.582l3.257,5.086l3.107-5.086h2.381
		l-4.411,6.792l4.436,6.94h-2.582L317.284,143.975z"/>
	<path fill="#FFFFFF" d="M333.301,135.129c3.683,0,6.515,2.756,6.515,7.042c0,4.259-2.832,7.142-6.515,7.142
		c-2.506,0-4.286-1.354-5.138-2.757v9.046h-2.281v-20.247h2.281v2.531C328.99,136.431,330.796,135.129,333.301,135.129z
		 M332.825,137.108c-2.481,0-4.661,1.905-4.661,5.088c0,3.232,2.181,5.111,4.661,5.111c2.531,0,4.661-1.904,4.661-5.136
		C337.486,138.939,335.355,137.108,332.825,137.108z"/>
	<path fill="#FFFFFF" d="M349.318,149.313c-3.884,0-6.842-2.757-6.842-7.117c0-4.336,3.057-7.067,6.942-7.067
		c3.909,0,6.942,2.731,6.942,7.067C356.36,146.555,353.228,149.313,349.318,149.313z M349.318,147.307
		c2.381,0,4.711-1.629,4.711-5.111c0-3.459-2.281-5.088-4.636-5.088c-2.406,0-4.586,1.629-4.586,5.088
		C344.807,145.679,346.938,147.307,349.318,147.307z"/>
	<path fill="#FFFFFF" d="M362.151,149.086h-2.281v-13.732h2.281v2.231c0.777-1.529,2.256-2.481,4.436-2.481v2.356h-0.602
		c-2.181,0-3.834,0.977-3.834,4.159V149.086z"/>
	<path fill="#FFFFFF" d="M370.223,137.233h-1.779v-1.879h1.779v-3.458h2.281v3.458h3.583v1.879h-3.583v8.095
		c0,1.352,0.502,1.829,1.904,1.829h1.679v1.929h-2.054c-2.431,0-3.809-1.002-3.809-3.758V137.233z"/>
	<path fill="#FFFFFF" d="M385.262,149.313c-3.909,0-6.792-2.757-6.792-7.117c0-4.336,2.782-7.067,6.792-7.067
		c3.984,0,6.59,2.806,6.59,6.565c0,0.502-0.025,0.902-0.075,1.379h-10.976c0.175,2.781,2.13,4.309,4.461,4.309
		c2.054,0,3.358-1.052,3.859-2.531h2.456C390.875,147.357,388.669,149.313,385.262,149.313z M380.826,141.218h8.67
		c0.025-2.681-1.979-4.159-4.334-4.159C382.931,137.058,381.077,138.537,380.826,141.218z"/>
	<path fill="#FFFFFF" d="M397.645,149.086h-2.281v-13.732h2.281v2.231c0.777-1.529,2.256-2.481,4.436-2.481v2.356h-0.602
		c-2.181,0-3.834,0.977-3.834,4.159V149.086z"/>
	<path fill="#FFFFFF" d="M410.076,149.313c-3.207,0-5.461-1.755-5.613-4.261h2.356c0.127,1.329,1.304,2.331,3.232,2.331
		c1.805,0,2.807-0.902,2.807-2.029c0-3.057-8.119-1.279-8.119-6.39c0-2.105,1.979-3.834,5.036-3.834
		c3.032,0,5.036,1.629,5.188,4.309h-2.281c-0.1-1.379-1.154-2.381-2.982-2.381c-1.679,0-2.681,0.802-2.681,1.905
		c0,3.257,7.969,1.477,8.069,6.39C415.089,147.607,413.108,149.313,410.076,149.313z"/>
</g>
</svg>
